<?xml version="1.0" encoding="UTF-8" standalone="no"?>
<!-- Created with Inkscape (http://www.inkscape.org/) -->

<svg
   id="svg2"
   sodipodi:version="0.32"
   inkscape:version="1.2.2 (b0a8486541, 2022-12-01)"
   width="230"
   height="230"
   version="1.0"
   sodipodi:docname="glosung.svg"
   inkscape:output_extension="org.inkscape.output.svg.inkscape"
   inkscape:export-filename="glosung.png"
   inkscape:export-xdpi="20.034782"
   inkscape:export-ydpi="20.034782"
   xmlns:inkscape="http://www.inkscape.org/namespaces/inkscape"
   xmlns:sodipodi="http://sodipodi.sourceforge.net/DTD/sodipodi-0.dtd"
   xmlns="http://www.w3.org/2000/svg"
   xmlns:svg="http://www.w3.org/2000/svg"
   xmlns:rdf="http://www.w3.org/1999/02/22-rdf-syntax-ns#"
   xmlns:cc="http://creativecommons.org/ns#"
   xmlns:dc="http://purl.org/dc/elements/1.1/">
  <metadata
     id="metadata7">
    <rdf:RDF>
      <cc:Work
         rdf:about="">
        <dc:format>image/svg+xml</dc:format>
        <dc:type
           rdf:resource="http://purl.org/dc/dcmitype/StillImage" />
      </cc:Work>
    </rdf:RDF>
  </metadata>
  <defs
     id="defs5">
    <inkscape:perspective
       sodipodi:type="inkscape:persp3d"
       inkscape:vp_x="0 : 108 : 1"
       inkscape:vp_y="0 : 1000 : 0"
       inkscape:vp_z="221 : 108 : 1"
       inkscape:persp3d-origin="110.5 : 75.333333 : 1"
       id="perspective7" />
  </defs>
  <sodipodi:namedview
     inkscape:window-height="1011"
     inkscape:window-width="1920"
     inkscape:pageshadow="2"
     inkscape:pageopacity="0"
     guidetolerance="10.0"
     gridtolerance="10.0"
     objecttolerance="10.0"
     borderopacity="1.0"
     bordercolor="#666666"
     pagecolor="#ffffff"
     id="base"
     inkscape:zoom="2.1941577"
     inkscape:cx="-44.664064"
     inkscape:cy="93.42993"
     inkscape:window-x="0"
     inkscape:window-y="0"
     inkscape:current-layer="svg2"
     showgrid="false"
     inkscape:pagecheckerboard="0"
     inkscape:window-maximized="1"
     inkscape:showpageshadow="2"
     inkscape:deskcolor="#d1d1d1" />
  <rect
     style="fill:#ffffff"
     id="rect164"
     width="230"
     height="230"
     x="0"
     y="0"
     ry="67.503471" />
  <path
     style="fill:#000000"
     d="m 187.91879,192.61933 c -4.56976,-4.0123 -5.89186,-15.73634 -8.66677,-27.43408 -2.83131,-11.9355 -4.89723,-17.52029 -8.33735,-27.89479 l -2.56367,3.42079 c -21.36747,28.51147 -53.7054,41.13916 -89.070488,34.78132 -28.4008,-5.10582 -50.46026,-21.78126 -57.59779,-47.86051 -2.79895,-10.22685 -2.44111,-21.32772 0.0365,-29.500002 6.10215,-20.127636 19.70265,-35.591756 40.06128,-45.550717 13.38981,-6.549981 23.70382,-7.552869 33.86152,-7.207503 19.311928,0.653875 34.637668,7.289669 50.037678,22.689683 9.75836,8.840815 17.47978,20.968098 25.09884,31.339842 3.74884,-9.938999 6.05655,-20.875384 9.50997,-35.052636 5.59412,-22.965412 9.55236,-29.776519 18.67385,-29.718669 6.66888,0.04257 11.31814,5.154516 11.31814,15.024023 0,8.982563 -3.51577,18.354387 -16.63522,44.343721 l -11.54366,22.867748 8.05663,16.13225 c 16.36079,32.76019 19.98834,52.51849 11.02664,60.05926 -4.26025,3.58476 -9.57832,2.64987 -13.26611,-0.43973 z m -71.47163,-36.28006 c 10.49595,-3.343 19.66485,-8.68309 27.52,-16.02804 6.71936,-6.28291 15.41999,-16.14287 18.23203,-22.48779 -4.86086,-9.65878 -8.45243,-15.17212 -16.82345,-25.209542 C 128.40566,72.265633 110.3177,64.632059 91.569522,64.632059 c -15.43875,0 -29.13743,5.184851 -39.62916,14.999345 -18.39432,17.206984 -19.3999,41.611666 -2.4584,59.663526 16.58314,17.67002 43.49483,24.51973 66.965198,17.04434 z M 54.253012,110.92795 c -7.61448,-5.24808 -8.4944,-15.203524 -1.88915,-21.373757 7.94333,-7.420175 20.61873,-2.270703 21.64942,8.795232 0.76371,8.199445 -4.84756,14.237095 -13.26027,14.267895 -2.21512,0.008 -5.14012,-0.75211 -6.5,-1.68937 z"
     id="path2161"
     sodipodi:nodetypes="czccsssssccssscccsccscssssccsssc"
     inkscape:export-filename="/home/godehardt/DEVELOP/glosung/glosung-big-white.png"
     inkscape:export-xdpi="76.070129"
     inkscape:export-ydpi="76.070129" />
</svg>
